# xmcd CD database file
#
# Track frame offsets:
#	150
#	22960
#	42741
#	65706
#	84673
#	105351
#	124956
#	145095
#	165634
#	187593
#	206237
#	225920
#
# Disc length: 3237 seconds
#
# Revision: 3
# Processed by: cddbd v1.5.2PL0 Copyright (c) Steve Scherf et al.
# Submitted via: CDex 1.51
#
DISCID=9d0ca30c
DTITLE=Nazca - Indians, Songs, Nature, Dreams
DYEAR=1900
DGENRE=New Age
TTITLE0=Paul De la Roche - Buffalo Moon
TTITLE1=Paul De la Roche - Brave Hearts
TTITLE2=Holm - Dreams Catchers
TTITLE3=Holm - Geronimo's Laughter
TTITLE4=Kater Peter - Ly-O-Lay Ale Loya
TTITLE5=Paul De la Roche - Come Faithful Ones
TTITLE6=Traditional Native of America - Wishes Of Hapiness and Prosperity
TTITLE7=Hamm - Dawa
TTITLE8=Cristian Shultze - Montezuma
TTITLE9=Enya - May It Be
TTITLE10=Paul De la Roche - Three Shamans
TTITLE11=K. Shultze - Islands Of The Galapagos
EXTD=
EXTT0=
EXTT1=
EXTT2=
EXTT3=
EXTT4=
EXTT5=
EXTT6=
EXTT7=
EXTT8=
EXTT9=
EXTT10=
EXTT11=
PLAYORDER=
